<svg xmlns="http://www.w3.org/2000/svg" width="12" height="12" fill="none">
  <path fill="rgb(10, 165, 255)" d="M5.54 2.086a.5.5 0 0 1 .92 0l.878 2.07a.5.5 0 0 0 .405.302l2.186.243a.5.5 0 0 1 .289.86L8.551 7.14a.5.5 0 0 0-.146.461l.46 2.28a.5.5 0 0 1-.75.527L6.26 9.283a.5.5 0 0 0-.518 0L3.885 10.41a.5.5 0 0 1-.75-.526l.46-2.28a.5.5 0 0 0-.146-.463L1.782 5.56a.5.5 0 0 1 .289-.86l2.186-.242a.5.5 0 0 0 .405-.301z"></path>
  <path fill="rgb(10, 165, 255)" d="M4.987 1.852c.38-.894 1.647-.894 2.026 0l.855 2.016 2.127.237c.931.103 1.315 1.247.636 1.891L9.004 7.538l.449 2.226c.19.94-.83 1.655-1.649 1.158L6 9.828l-1.804 1.094c-.82.497-1.838-.219-1.649-1.158l.45-2.226-1.628-1.542c-.68-.644-.295-1.788.636-1.891l2.127-.237zM6 2.537l-.786 1.854a1.1 1.1 0 0 1-.891.664l-1.972.219 1.51 1.43a1.1 1.1 0 0 1 .322 1.017L3.77 9.778l1.66-1.008a1.1 1.1 0 0 1 1.141 0l1.662 1.008-.415-2.057a1.1 1.1 0 0 1 .321-1.016l1.51-1.431-1.97-.22a1.1 1.1 0 0 1-.892-.663z"></path>
</svg>
