<svg width="20" height="20" viewBox="0 0 20 20" fill="none" xmlns="http://www.w3.org/2000/svg">
<path d="M19 10.5366C18.9945 10.7497 18.9135 10.9523 18.7737 11.1029L12.6071 17.766C12.4617 17.9177 12.2669 18.0018 12.0647 18C11.8624 17.9982 11.6689 17.9107 11.5258 17.7564C11.3828 17.602 11.3016 17.3932 11.2997 17.1749C11.2978 16.9565 11.3755 16.7461 11.5159 16.589L16.3702 11.3438H1.77134C1.56677 11.3438 1.37057 11.2561 1.22592 11.0999C1.08127 10.9437 1 10.7319 1 10.5111C1 10.2902 1.08127 10.0784 1.22592 9.92222C1.37057 9.76605 1.56677 9.67831 1.77134 9.67831H16.363L11.5159 4.442C11.4402 4.36576 11.3794 4.27382 11.3372 4.17167C11.2951 4.06952 11.2724 3.95925 11.2706 3.84744C11.2687 3.73562 11.2878 3.62456 11.3266 3.52087C11.3654 3.41718 11.4231 3.32298 11.4964 3.24391C11.5696 3.16483 11.6569 3.10249 11.7529 3.06061C11.8489 3.01872 11.9518 2.99816 12.0554 3.00013C12.159 3.0021 12.2611 3.02658 12.3557 3.07209C12.4503 3.11761 12.5355 3.18323 12.6061 3.26504L18.7254 9.87484C18.8142 9.95577 18.885 10.0573 18.9324 10.1719C18.9797 10.2865 19.0035 10.4112 19 10.5366Z" fill="#2F3438"/>
</svg>
